<?xml version="1.0" standalone="no"?><!DOCTYPE svg PUBLIC "-//W3C//DTD SVG 1.1//EN" "http://www.w3.org/Graphics/SVG/1.1/DTD/svg11.dtd"><svg t="1731836405146" class="icon" viewBox="0 0 1024 1024" version="1.1" xmlns="http://www.w3.org/2000/svg" p-id="4412" xmlns:xlink="http://www.w3.org/1999/xlink" width="200" height="200"><path d="M768.298667 305.706667c-8.106667 0-16.128-1.578667-23.68-4.608a648.533333 648.533333 0 0 0-484.821334 0 63.146667 63.146667 0 1 1-47.488-117.034667 775.722667 775.722667 0 0 1 579.157334 0 63.189333 63.189333 0 0 1-23.850667 121.642667h0.682667z m-162.005334 269.354666H397.952a63.189333 63.189333 0 0 1 0-126.421333h208.341333a63.232 63.232 0 0 1 0 126.421333zM502.058667 896a768.938667 768.938667 0 0 1-289.621334-56.234667 63.232 63.232 0 1 1 47.530667-117.034666 643.072 643.072 0 0 0 484.522667 0.682666 63.146667 63.146667 0 0 1 47.530666 117.034667A768.896 768.896 0 0 1 502.058667 896z" p-id="4413" fill="#44c9c1"></path></svg>